<?xml version="1.0" encoding="UTF-8"?>
<svg xmlns="http://www.w3.org/2000/svg" id="Capa_1" enable-background="new 0 0 512 512" height="20pt" viewBox="0 0 512 512" width="16pt"><g><g><g>
    <path d="m321.043 58.553h-49.734v-6.468c0-5.523-4.478-10-10-10h-32.861c-.047-23.213-18.947-42.085-42.172-42.085s-42.124 18.872-42.17 42.085h-32.862c-5.522 0-10 4.477-10 10v6.468h-49.733c-19.874 0-36.043 16.169-36.043 36.043v381.362c0 9.857 0 36.043 26.043 36.043h279.532c19.874 0 36.042-16.168 36.042-36.043v-381.362c0-19.874-16.168-36.043-36.042-36.043zm-209.837 64c.013 0 .025.001.038.001h150.064c.013 0 .025-.001.038-.001h31.738v325.447h-213.616v-325.447zm44.457-60.468c3.199 0 6.205-1.53 8.087-4.118 1.882-2.587 2.412-5.918 1.427-8.961-.71-2.195-1.07-4.495-1.07-6.836 0-12.225 9.945-22.17 22.17-22.17s22.171 9.946 22.171 22.17c0 2.338-.36 4.639-1.071 6.836-.985 3.043-.455 6.375 1.427 8.961 1.882 2.587 4.888 4.118 8.087 4.118h34.419v40.468h-130.066v-40.468zm181.422 413.872c0 8.846-7.196 16.043-16.042 16.043h-279.532c-3.481 0-3.89-.87-4.363-1.878-1.489-3.171-1.68-9.235-1.68-14.165v-381.361c0-8.846 7.197-16.043 16.043-16.043h49.733v24h-31.776c-5.522 0-10 4.477-10 10v345.447c0 5.523 4.478 10 10 10h233.617c5.522 0 10-4.477 10-10v-345.447c0-5.523-4.478-10-10-10h-31.776v-24h49.734c8.846 0 16.042 7.197 16.042 16.043z"/><path d="m146.613 234.089h9.661v9.674c0 11.061 8.999 20.06 20.061 20.06h19.883c11.061 0 20.061-8.999 20.061-20.06v-9.674h9.661c11.062 0 20.061-8.999 20.061-20.06v-19.898c0-11.062-8.999-20.061-20.061-20.061h-9.661v-9.674c0-11.061-8.999-20.06-20.061-20.06h-19.883c-11.062 0-20.061 8.999-20.061 20.06v9.674h-9.661c-11.061 0-20.061 8.999-20.061 20.061v19.898c.001 11.061 9 20.06 20.061 20.06zm0-40.018h19.661c5.523 0 10-4.477 10-10l.061-19.734 19.943.06v19.674c0 5.523 4.478 10 10 10h19.661l.061.061-.061 19.958h-19.661c-5.522 0-10 4.477-10 10l-.061 19.735-19.943-.061v-19.674c0-5.523-4.477-10-10-10l-19.722-.06z"/><path d="m114.681 314.83h148.511c5.522 0 10-4.477 10-10s-4.478-10-10-10h-148.511c-5.522 0-10 4.477-10 10s4.477 10 10 10z"/><path d="m114.681 354.575h148.511c5.522 0 10-4.477 10-10s-4.478-10-10-10h-148.511c-5.522 0-10 4.477-10 10s4.477 10 10 10z"/><path d="m263.191 384.319h-76.915c-5.522 0-10 4.477-10 10s4.478 10 10 10h76.915c5.522 0 10-4.477 10-10s-4.477-10-10-10z"/><path d="m486.532 104.904h-30.045v-43.411c0-12.128-9.867-21.996-21.995-21.996h-33.844c-12.129 0-21.996 9.867-21.996 21.996v352.152c0 22.72 8.482 44.43 23.885 61.13l5.033 5.458v21.767c0 5.523 4.478 10 10 10s10-4.477 10-10v-21.767l5.033-5.458c15.401-16.701 23.884-38.411 23.884-61.13v-40.475c0-5.523-4.478-10-10-10s-10 4.477-10 10v40.475c0 17.68-6.601 34.575-18.587 47.572l-.33.358-.331-.359c-11.985-12.996-18.587-29.891-18.587-47.571v-288.741h37.835v157.854c0 5.523 4.478 10 10 10s10-4.477 10-10v-157.854h20.045v131.411c0 5.523 4.478 10 10 10s10-4.477 10-10v-141.411c0-5.523-4.477-10-10-10zm-87.88-43.411c0-1.101.896-1.996 1.996-1.996h33.844c1.101 0 1.995.895 1.995 1.996v43.411h-37.835z"/><path d="m455.72 324.32c-1.578-3.788-5.401-6.259-9.502-6.165-4.255.098-8.062 3.03-9.298 7.092-1.193 3.922.217 8.346 3.484 10.833 3.355 2.555 8.041 2.731 11.571.424 3.983-2.604 5.543-7.797 3.745-12.184z"/></g></g></g>
</svg>