<?xml version="1.0" encoding="UTF-8"?>
<svg height="20pt" viewBox="-1 0 512 512" width="16pt" xmlns="http://www.w3.org/2000/svg">
    <path d="m195 130c35.839844 0 65-29.160156 65-65s-29.160156-65-65-65c-35.84375 0-65 29.160156-65 65s29.15625 65 65 65zm0-100c19.296875 0 35 15.699219 35 35s-15.703125 35-35 35c-19.300781 0-35-15.699219-35-35s15.699219-35 35-35zm0 0"/><path d="m375 130c35.839844 0 65-29.160156 65-65s-29.160156-65-65-65c-35.84375 0-65 29.160156-65 65s29.15625 65 65 65zm0-100c19.296875 0 35 15.699219 35 35s-15.703125 35-35 35c-19.300781 0-35-15.699219-35-35s15.699219-35 35-35zm0 0"/><path d="m434.996094 160h-314.996094v352h150v-144.578125c4.695312 1.664063 9.738281 2.578125 15 2.578125 5.257812 0 10.304688-.914062 15-2.578125v144.578125h150v-144.578125c4.695312 1.664063 9.738281 2.578125 14.996094 2.578125 24.816406 0 45-20.1875 45-45v-90c0-41.355469-33.644532-75-75-75zm-284.996094 262h30v60h-30zm135-82c-8.273438 0-15-6.730469-15-15v-105h-30v262h-30v-157h-30v67h-30v-202h105c24.8125 0 45 20.1875 45 45v90c0 8.269531-6.730469 15-15 15zm194.996094-15c0 8.269531-6.726563 15-15 15-8.261719 0-14.984375-6.71875-14.996094-14.980469v-105.019531h-30v105 157h-30v-157h-30v157h-30v-247c0-16.871094-5.605469-32.457031-15.042969-45h120.039063c24.816406 0 45 20.1875 45 45zm0 0"/><path d="m0 328.539062 30 60v123.460938h30v-123.460938l30-60v-168.539062h-90zm45 22.921876-15-30v-71.460938h30v71.460938zm15-161.460938v30h-30v-30zm0 0"/>
</svg>