<?xml version="1.0" encoding="UTF-8"?>
<svg height="20pt" viewBox="-91 0 512 512" width="16pt" xmlns="http://www.w3.org/2000/svg">
    <path d="m195 130c35.839844 0 65-29.160156 65-65s-29.160156-65-65-65-65 29.160156-65 65 29.160156 65 65 65zm0-100c19.300781 0 35 15.699219 35 35s-15.699219 35-35 35-35-15.699219-35-35 15.699219-35 35-35zm0 0"/><path d="m255 160h-135v352h150v-144.570312c4.691406 1.664062 9.742188 2.570312 15 2.570312 24.8125 0 45-20.1875 45-45v-90c0-41.355469-33.644531-75-75-75zm-105 262h30v60h-30zm150-97c0 8.269531-6.730469 15-15 15s-15-6.730469-15-15v-96h-30v253h-30v-157h-30v67h-30v-202h105c24.8125 0 45 20.1875 45 45zm0 0"/><path d="m0 328.539062 30 60v123.460938h30v-123.460938l30-60v-168.539062h-90zm45 22.921876-15-30v-71.460938h30v71.460938zm15-161.460938v30h-30v-30zm0 0"/>
</svg>